<svg width="26" height="20" viewBox="0 0 26 20" fill="none" xmlns="http://www.w3.org/2000/svg">
<path fill-rule="evenodd" clip-rule="evenodd" d="M24.6417 2.23686C25.0451 2.64286 25.3348 3.14769 25.4818 3.70082C26.0254 5.74241 26.0254 9.9999 26.0254 9.9999C26.0254 9.9999 26.0254 14.2574 25.4818 16.299C25.3348 16.8521 25.0451 17.357 24.6417 17.763C24.2383 18.169 23.7353 18.4619 23.1831 18.6124C21.1504 19.159 13.0254 19.159 13.0254 19.159C13.0254 19.159 4.90039 19.159 2.86766 18.6124C2.31548 18.4619 1.81252 18.169 1.40912 17.763C1.00572 17.357 0.716022 16.8521 0.569027 16.299C0.0253906 14.2574 0.0253906 9.9999 0.0253906 9.9999C0.0253906 9.9999 0.0253906 5.74241 0.569027 3.70082C0.716022 3.14769 1.00572 2.64286 1.40912 2.23686C1.81252 1.83087 2.31548 1.53795 2.86766 1.38741C4.90039 0.84082 13.0254 0.84082 13.0254 0.84082C13.0254 0.84082 21.1504 0.84082 23.1831 1.38741C23.7353 1.53795 24.2383 1.83087 24.6417 2.23686ZM10.3672 6.13379V13.8659L17.1626 9.99986L10.3672 6.13379Z" fill="#FAFAFA"/>
</svg>
